<svg xmlns="http://www.w3.org/2000/svg" width="73.045" height="106" viewBox="0 0 73.045 106">
  <g id="_023-graphic-tablet" data-name="023-graphic-tablet" transform="translate(0 106) rotate(-90)">
    <g id="Grupo_26" data-name="Grupo 26" transform="translate(0)">
      <g id="Grupo_25" data-name="Grupo 25">
        <path id="Caminho_17" data-name="Caminho 17" d="M102.687,0H3.312A3.316,3.316,0,0,0,0,3.32v66.4a3.316,3.316,0,0,0,3.312,3.32h99.375A3.316,3.316,0,0,0,106,69.725V3.32A3.316,3.316,0,0,0,102.687,0ZM24.844,9.961H96.062V63.085H24.844ZM21.531,69.725H3.312V3.32H21.531Zm81.156,0H24.844V66.4H97.719a1.658,1.658,0,0,0,1.656-1.66V8.3a1.658,1.658,0,0,0-1.656-1.66H24.844V3.32h77.844Z" fill="#fff"/>
      </g>
    </g>
    <g id="Grupo_28" data-name="Grupo 28" transform="translate(6.64 29.882)">
      <g id="Grupo_27" data-name="Grupo 27">
        <path id="Caminho_18" data-name="Caminho 18" d="M6.64,0a6.64,6.64,0,1,0,6.64,6.64A6.641,6.641,0,0,0,6.64,0Zm0,9.961a3.32,3.32,0,1,1,3.32-3.32A3.32,3.32,0,0,1,6.64,9.961Z" fill="#fff"/>
      </g>
    </g>
    <g id="Grupo_29" data-name="Grupo 29" transform="translate(63.181 14.696) rotate(90)">
      <g id="Grupo_15" data-name="Grupo 15">
        <path id="Caminho_14" data-name="Caminho 14" d="M41.072,0H1.956A1.956,1.956,0,0,0,0,1.956V33.249A1.956,1.956,0,0,0,1.956,35.2H41.072a1.956,1.956,0,0,0,1.956-1.956V1.956A1.956,1.956,0,0,0,41.072,0ZM6.677,31.293,17.851,20.12,34.612,31.293Zm32.439-1.7-10.23-6.82,4.546-4.546,5.684,4.263Zm0-11.992-4.694-3.52a1.956,1.956,0,0,0-2.556.182l-6.3,6.3-6.88-4.587a1.956,1.956,0,0,0-2.468.244L3.912,28.528V3.912h35.2Z" fill="#fff"/>
      </g>
    </g>
    <g id="Grupo_30" data-name="Grupo 30" transform="translate(83.317 14.636) rotate(90)">
      <g id="Grupo_17" data-name="Grupo 17">
        <path id="Caminho_15" data-name="Caminho 15" d="M41.742,0H1.346C.6,0,0,.876,0,1.956V13.691c0,1.08.6,1.956,1.346,1.956h40.4c.744,0,1.347-.876,1.347-1.956V1.956C43.088.876,42.485,0,41.742,0ZM40.4,11.735H2.693V3.912H40.4Z" fill="#fff"/>
      </g>
    </g>
    <g id="Grupo_31" data-name="Grupo 31" transform="translate(93.385 53.872) rotate(90)">
      <g id="Grupo_11" data-name="Grupo 11" transform="translate(0 0)">
        <rect id="Ret창ngulo_79" data-name="Ret창ngulo 79" width="4" height="4" fill="#fff"/>
      </g>
    </g>
    <g id="Grupo_32" data-name="Grupo 32" transform="translate(93.385 46.872) rotate(90)">
      <g id="Grupo_11-2" data-name="Grupo 11" transform="translate(0 0)">
        <rect id="Ret창ngulo_79-2" data-name="Ret창ngulo 79" width="4" height="4" fill="#fff"/>
      </g>
    </g>
  </g>
</svg>
