<svg xmlns="http://www.w3.org/2000/svg" width="115.366" height="106" viewBox="0 0 115.366 106">
  <g id="_024-computer-graphic" data-name="024-computer-graphic" transform="translate(0 -18)">
    <g id="Grupo_34" data-name="Grupo 34" transform="translate(0 18)">
      <g id="Grupo_33" data-name="Grupo 33">
        <path id="Caminho_19" data-name="Caminho 19" d="M109.958,8H5.408A5.274,5.274,0,0,0,0,13.129V88.355a1.758,1.758,0,0,0,1.8,1.71H42.866l-2.884,13.677h-3.93a1.758,1.758,0,0,0-1.8,1.71v5.129H30.644V114H84.722v-3.419H81.117v-5.129a1.758,1.758,0,0,0-1.8-1.71H75.382L72.5,90.065h41.066a1.758,1.758,0,0,0,1.8-1.71V13.129A5.274,5.274,0,0,0,109.958,8ZM73.906,107.161h3.605v3.419H37.855v-3.419H73.906Zm-30.248-3.419L46.54,90.065H68.823l2.884,13.677Zm68.1-17.1H3.605V71.258H111.761ZM86.525,23.387H72.1a1.758,1.758,0,0,0-1.8,1.71V40.484h3.605V26.806H84.722v6.839h-7.21v3.419h7.21v8.548h-7.21v3.419h7.21v8.548h-7.21V61h7.21v6.839H73.906V54.161H70.3V67.839h-7.21V59.29c0-6.977,8.934-8.511,9.309-8.572a1.864,1.864,0,0,0,.629-.219,1.661,1.661,0,0,0,.621-2.345L57.425,22.508a1.829,1.829,0,0,0-.486-.461,1.937,1.937,0,0,0-2.6.461L38.112,48.153a1.652,1.652,0,0,0-.231.592,1.721,1.721,0,0,0,1.475,1.972c.38.062,9.314,1.6,9.314,8.572v8.548H41.46V54.161H37.855V67.839h-1.8V37.065h1.8v3.419H41.46V35.355a1.615,1.615,0,0,0-.146-.674L35.906,22.713a1.759,1.759,0,0,0-.946-.9,1.841,1.841,0,0,0-2.367.9L27.185,34.681a1.616,1.616,0,0,0-.146.674V67.839H12.618V19.968h90.13V67.839H88.327V25.1A1.758,1.758,0,0,0,86.525,23.387ZM52.275,62.71V61h7.21v1.71Zm7.21,3.419v1.71h-7.21v-1.71Zm-7.342-8.548c-.863-5.437-5.772-8.377-9.7-9.634L54.078,29.56V43.9h3.605V29.56L69.315,47.947c-3.93,1.248-8.835,4.2-9.7,9.634H52.144ZM31.571,33.645l2.678-5.926,2.678,5.926Zm.875,3.419V67.839h-1.8V37.065Zm79.314,30.774h-5.408V18.258a1.758,1.758,0,0,0-1.8-1.71H10.816a1.758,1.758,0,0,0-1.8,1.71V67.839H3.605V13.129a1.758,1.758,0,0,1,1.8-1.71H109.958a1.758,1.758,0,0,1,1.8,1.71Z" transform="translate(0 -8)" fill="#fff"/>
      </g>
    </g>
    <g id="Grupo_36" data-name="Grupo 36" transform="translate(52.275 83.589)">
      <g id="Grupo_35" data-name="Grupo 35">
        <path id="Caminho_20" data-name="Caminho 20" d="M237.408,312a5.408,5.408,0,1,0,5.408,5.408A5.408,5.408,0,0,0,237.408,312Zm0,7.21a1.8,1.8,0,1,1,1.8-1.8A1.8,1.8,0,0,1,237.408,319.21Z" transform="translate(-232 -312)" fill="#fff"/>
      </g>
    </g>
  </g>
</svg>
