<svg xmlns="http://www.w3.org/2000/svg" width="125" height="125" viewBox="0 0 125 125">
  <path id="adobe_xd_icon_132613" d="M0,0V125H125V0ZM53.11,89.728,41.553,65.911,30.4,89.671H19.535L35.528,59.2,20.064,28.393h11.28l10.948,23.42L53.148,28.337H63.736L48.26,58.237,64.65,89.729H53.11Zm49.551-2.5a33.86,33.86,0,0,1-14.552,3.3c-12.335.057-21.146-7.56-21.146-23.022.4-15.839,10.955-24.677,25.75-23.477V28.393h10.118V81.031C102.852,87.309,103.545,86.705,102.66,87.227ZM92.713,52.95V81.088C82.726,83.679,77.2,77.6,77.251,67.047,77.289,56.224,84.4,50.606,92.713,52.95Z" fill="#fff"/>
</svg>
