<svg xmlns="http://www.w3.org/2000/svg" width="125" height="125" viewBox="0 0 125 125">
  <path id="bootstrap-icon" d="M75.7,65.6c-2.334-.768-5.694-.6-10.08-.6H48V88H66.844a33.5,33.5,0,0,0,6.2-.535,14.877,14.877,0,0,0,5.264-1.982A10.153,10.153,0,0,0,81.789,81.6a12.1,12.1,0,0,0,1.363-5.83,10.64,10.64,0,0,0-1.975-6.436A10,10,0,0,0,75.7,65.6ZM73.282,55.087A9.737,9.737,0,0,0,78.521,51.6a9.963,9.963,0,0,0,1.763-6.044A11.134,11.134,0,0,0,78.638,39.5c-1.1-1.74-2.662-2.413-4.7-3.056S68.409,36,63.459,36H48V56H64.587a32.1,32.1,0,0,0,8.695-.913ZM126,18.625A16.625,16.625,0,0,0,109.375,2H17.625A16.625,16.625,0,0,0,1,18.625v91.75A16.625,16.625,0,0,0,17.625,127h91.75A16.625,16.625,0,0,0,126,110.375ZM90.553,84.745A17.416,17.416,0,0,1,85.5,91.16a21.227,21.227,0,0,1-7.544,3.548A45.138,45.138,0,0,1,66.844,96H39V27H66.42c5.264,0,9.485.609,12.665,2A16.208,16.208,0,0,1,86.559,35.4a16.9,16.9,0,0,1,2.7,9.071,15.594,15.594,0,0,1-2.4,8.308,17.1,17.1,0,0,1-7.237,6.292,18,18,0,0,1,9.61,6.248A16.738,16.738,0,0,1,92.6,75.748a20.109,20.109,0,0,1-2.044,9Z" transform="translate(-1 -2)" fill="#fff"/>
</svg>
