<svg xmlns="http://www.w3.org/2000/svg" width="110.48" height="125.463" viewBox="0 0 110.48 125.463">
  <path id="css3-icon" d="M8.76,1,18.815,113.883l45.118,12.58,45.244-12.626L119.24,1H8.76ZM98.351,26.862,95,64.467l.01.2L95,65.137v0L92.622,91.427l-.262,2.336L64,101.607h0l-.022.019L35.667,93.739,33.75,72H47.633l.985,11.054L64,87.224l0,.008v0L79.443,83l1.632-18H48.792l-.277-3.043-.631-7.129L47.553,51H82.3l1.264-14H30.64l-.277-3.041-.63-7.131L29.4,23H98.682l-.331,3.862Z" transform="translate(-8.76 -1)" fill="#fff"/>
</svg>
