<svg xmlns="http://www.w3.org/2000/svg" width="92.061" height="124.827" viewBox="0 0 92.061 124.827">
  <path id="java-icon" d="M47.617,98.12c-19.192,5.362,11.677,16.439,36.115,5.969a45.276,45.276,0,0,1-6.874-3.351c-10.9,2.06-15.952,2.222-25.844,1.092-8.164-.935-3.4-3.71-3.4-3.71ZM80.806,87.66c-14.444,2.779-22.787,2.69-33.354,1.6-8.171-.845-2.822-4.805-2.822-4.805C23.493,91.471,56.4,99.432,85.939,90.791a14.743,14.743,0,0,1-5.133-3.131ZM92.125,27.085S49.394,37.754,69.8,61.272c6.024,6.935-1.58,13.17-1.58,13.17s15.289-7.891,8.269-17.777C69.932,47.45,64.9,42.872,92.125,27.085Zm10,81.144s3.529,2.91-3.888,5.159c-14.1,4.272-58.706,5.56-71.1.171-4.45-1.938,3.9-4.625,6.526-5.192a17.051,17.051,0,0,1,4.3-.485c-4.952-3.487-32.013,6.85-13.742,9.815,49.821,8.076,90.817-3.637,77.9-9.468ZM85,77.9a40.012,40.012,0,0,1,5.7-3.053s-9.424,1.685-18.813,2.474c-11.494.964-23.823,1.154-30.012.326-14.652-1.959,8.033-7.348,8.033-7.348s-8.812-.6-19.644,4.644C17.455,81.134,61.958,83.958,85,77.9Zm5.609,15.145a2.066,2.066,0,0,1-.468.616c31.273-8.221,19.775-28.979,4.822-23.725a4.255,4.255,0,0,0-2,1.543,17.709,17.709,0,0,1,2.678-.72C103.2,69.18,114.03,80.874,90.609,93.041ZM64.181,70.069c-4.614-10.429-20.26-19.553.007-35.559,25.271-19.947,12.3-32.923,12.3-32.923,5.23,20.608-18.451,26.833-27,39.667C43.672,50,52.35,59.4,64.181,70.069Zm27.274,51.748c-19.187,3.612-42.854,3.191-56.887.874,0,0,2.874,2.38,17.646,3.331,22.476,1.437,57-.8,57.816-11.436,0,0-1.57,4.032-18.575,7.231Z" transform="translate(-17.969 -1.587)" fill="#fff"/>
</svg>
