<svg xmlns="http://www.w3.org/2000/svg" width="103.034" height="119.048" viewBox="0 0 103.034 119.048">
  <g id="jest-icon" transform="translate(30.103 107.146)">
    <path id="Subtração_1" data-name="Subtração 1" d="M20.152,119.048h0A20.837,20.837,0,0,1,7.823,115.09C-.9,108.974-.493,97.657.522,91.456,1.463,85.712,4.008,80.421,6.469,75.3c.456-.946.863-1.8,1.247-2.616a14.724,14.724,0,0,0,3.872.984c-2.51,8.385,1.572,17.54,9.7,21.769l1.131.588,1.2-.432a50.862,50.862,0,0,0,17.906-11.24A56.437,56.437,0,0,0,50.391,73.51a14.934,14.934,0,0,0,2.244.17A15.107,15.107,0,0,0,67.617,58.6l9.264.136A15.132,15.132,0,0,0,91.862,73.68a14.748,14.748,0,0,0,8.544-2.717,18.667,18.667,0,0,1,1.64,11.324A17.861,17.861,0,0,1,93.4,94.662c-4.3,2.519-9.443,3.27-14.892,4.065-2.918.426-5.935.866-8.888,1.6-7.8,1.946-15.35,5.743-22.655,9.415-4.872,2.449-9.472,4.762-13.926,6.48A35.748,35.748,0,0,1,20.152,119.048ZM13.258,67.815a9.212,9.212,0,1,1,9.1-9.212A9.167,9.167,0,0,1,13.258,67.815Zm78.6-.087a9.212,9.212,0,1,1,9.1-9.212A9.167,9.167,0,0,1,91.862,67.728Zm-39.227,0a9.212,9.212,0,1,1,9.1-9.212A9.167,9.167,0,0,1,52.635,67.728ZM86.514,44.354h0L72.029,14.447,57.5,44.177a14.7,14.7,0,0,0-1.936-.532L40.952,0h62.081L88.37,43.772a14.73,14.73,0,0,0-1.856.582Z" transform="translate(-30.103 -107.146)" fill="#fff"/>
  </g>
</svg>
