<svg xmlns="http://www.w3.org/2000/svg" width="124.571" height="120.005" viewBox="0 0 124.571 120.005">
  <path id="jquery-icon" d="M65.283,106.928c-.828-.187-1.633-.446-2.441-.685l-.609-.185q-1.185-.363-2.352-.765l-.323-.117c-.7-.245-1.388-.5-2.074-.769l-.582-.229c-.752-.3-1.5-.607-2.238-.931l-.447-.2c-.635-.288-1.263-.578-1.889-.879l-.546-.262c-.491-.239-.977-.493-1.461-.743-.324-.171-.654-.332-.975-.51-.592-.317-1.173-.646-1.751-.982L47,99.343c-.769-.452-1.529-.921-2.28-1.4l-.615-.41c-.546-.351-1.088-.709-1.623-1.079l-.523-.367q-.774-.547-1.534-1.109l-.679-.514c-.464-.355-.927-.713-1.384-1.082l-.617-.5c-.581-.479-1.156-.959-1.724-1.453l-.188-.159c-.614-.539-1.217-1.092-1.812-1.647l-.51-.491c-.441-.42-.875-.843-1.3-1.277l-.51-.509q-.814-.834-1.6-1.69l-.078-.084c-.553-.6-1.092-1.221-1.621-1.844l-.424-.5q-.593-.712-1.167-1.442l-.427-.532c-.459-.6-.908-1.189-1.347-1.794-12.15-16.574-16.516-39.432-6.8-58.2L9.625,32.181C-1.4,48.032-.031,68.657,8.394,85.5c.2.4.411.8.617,1.2l.4.759.245.437.439.786q.393.691.805,1.379l.458.756c.3.491.615.976.934,1.46l.4.614c.438.655.888,1.309,1.352,1.951l.039.05.228.308c.4.553.814,1.1,1.232,1.639l.463.59q.559.7,1.139,1.4l.435.52c.518.61,1.047,1.217,1.586,1.812l.032.033.062.068c.526.575,1.066,1.137,1.612,1.7l.517.521c.423.426.853.845,1.287,1.262l.526.5c.58.547,1.166,1.083,1.764,1.607l.028.022.307.262c.526.456,1.062.909,1.6,1.353l.664.529q.661.531,1.336,1.044l.714.543q.743.547,1.5,1.075l.546.387.15.107c.478.329.967.646,1.456.963l.63.42c.749.474,1.51.943,2.278,1.4l.63.355q.847.489,1.711.959c.312.168.632.327.946.488.407.213.811.429,1.225.636l.283.137.5.242c.641.306,1.287.607,1.94.9l.41.184q1.122.491,2.263.941l.551.217c.7.271,1.418.539,2.135.791l.268.093c.786.275,1.581.53,2.381.779l.575.172a23.224,23.224,0,0,0,2.458.693c53.339,9.727,68.833-32.053,68.833-32.053-13.014,16.954-36.112,21.426-58,16.447ZM46.069,63.7a28.013,28.013,0,0,0,4.1,5.127c.575.633,1.176,1.251,1.79,1.858l.472.465c.6.578,1.2,1.146,1.828,1.7l.074.064.018.018c.693.608,1.408,1.191,2.135,1.767l.484.378c.729.559,1.472,1.107,2.233,1.631l.065.049c.336.232.679.448,1.02.672l.482.319c.544.349,1.1.689,1.656,1.015l.234.136c.483.278.973.552,1.463.818l.521.271c.339.177.678.358,1.024.53l.155.07c.7.346,1.411.68,2.136,1l.472.194c.578.246,1.163.486,1.75.71l.75.275c.533.2,1.068.378,1.608.559l.727.233a17.794,17.794,0,0,0,2.324.672c41.183,6.823,50.69-24.886,50.69-24.886-8.57,12.343-25.168,18.233-42.879,13.635-.787-.207-1.562-.431-2.333-.674l-.7-.227q-.822-.266-1.632-.562l-.736-.274c-.591-.228-1.176-.462-1.756-.708l-.473-.2q-1.09-.474-2.148-1c-.364-.177-.721-.364-1.078-.548l-.622-.32c-.458-.248-.914-.506-1.363-.77l-.326-.185c-.558-.325-1.106-.661-1.65-1.008l-.5-.332c-.358-.232-.717-.469-1.069-.707-.759-.524-1.5-1.072-2.226-1.628l-.5-.4A49.66,49.66,0,0,1,47.476,39.462c-3.062-9.836-2.4-20.878,2.9-29.84l-6.517,9.2C35.885,30.3,36.319,45.666,42.541,57.805A50.37,50.37,0,0,0,46.069,63.7ZM89.476,49.5c.339.125.678.237,1.022.354l.451.143a13.08,13.08,0,0,0,1.467.424c22.739,4.394,28.908-11.669,30.549-14.034-5.4,7.779-14.482,9.646-25.623,6.942-.88-.213-1.848-.531-2.7-.832a32.575,32.575,0,0,1-8.813-4.753C75.864,30.177,69.671,15.748,76.176,4l-3.52,4.851A24,24,0,0,0,70.755,32,32.617,32.617,0,0,0,89.476,49.5Z" transform="translate(-1.714 -3.997)" fill="#fff"/>
</svg>
