<svg xmlns="http://www.w3.org/2000/svg" width="126.054" height="125.281" viewBox="0 0 126.054 125.281">
  <g id="laravel-icon" transform="translate(-1 -1.719)">
    <path id="Caminho_29" data-name="Caminho 29" d="M16.934,1.719a17.5,17.5,0,0,0-3.325.373,16.136,16.136,0,0,0-11.8,12.6c.172.3.353.617.545.938,1.219,2.038,2.439,4.062,3.661,6.1l3.212,5.341Q10.71,29.534,12.188,32L16.8,39.692q1.571,2.622,3.143,5.244,2.291,3.817,4.583,7.634l5.609,9.371q2.426,4.048,4.857,8.093l.216.314a1.052,1.052,0,0,0,.616-.035q3.2-.768,6.4-1.531Q47.413,67.541,52.6,66.3l5.421-1.3q5.249-1.254,10.5-2.508,5.306-1.269,10.611-2.543,2.682-.644,5.365-1.283,5.191-1.239,10.383-2.474L106.191,53.5l.611-.165-.167-.331-3.086-4.362L100.5,44.332l-3.26-4.6-3.116-4.413-3.088-4.361-3.188-4.507q-1.562-2.2-3.126-4.407l-1.647-2.326a4.275,4.275,0,0,1-.587-1.159,1.865,1.865,0,0,1,.636-2.181,3.563,3.563,0,0,1,1.3-.7c.663-.195,1.332-.382,2.01-.51,1.359-.257,2.727-.475,4.091-.7l4.624-.754c.975-.161,1.949-.33,2.924-.495q1.987-.336,3.976-.67,1.931-.324,3.861-.642l4.213-.689,2.924-.491q1.668-.279,3.334-.553c1.386-.226,2.771-.454,4.157-.671a5.1,5.1,0,0,1,4.168.9l.721.5c.072-.166-.032-.256-.08-.351a16.629,16.629,0,0,0-9.9-8.512,16.253,16.253,0,0,0-3.778-.305M55.689,127c-.062,0-.117-.45-.187-.569-1.5-2.56-3.016-5.308-4.5-7.877q-2.8-4.857-5.557-9.74Q42.5,103.6,39.584,98.362q-2.781-4.971-5.549-9.948-1.673-3.007-3.337-6.02l-.3-.459-.542.107q-1.608.416-3.212.838c-1.49.392-2.979.791-4.47,1.18q-5.021,1.307-10.041,2.605c-3.4.884-6.951,1.77-10.356,2.65-.207.053.219.071-.781.106v21.145c.412.656.373.347.4.563.079.626.207,1.257.317,1.877A15.958,15.958,0,0,0,4.4,119.357a16.515,16.515,0,0,0,7.788,6.082,15.052,15.052,0,0,0,3.562.9l1.241.328" fill="#fff" fill-rule="evenodd"/>
    <path id="Caminho_30" data-name="Caminho 30" d="M4.976,77.742q5.909-1.405,11.818-2.808c1.73-.41,3.461-.815,5.191-1.227.865-.206,1.732-.4,2.59-.634.764-.206.858-.459.465-1.148-.568-1-1.146-1.986-1.721-2.979l-5.064-8.72L13.193,51.5q-2.576-4.437-5.154-8.873-2.206-3.795-4.412-7.59c-.636-1.094-1.408-2.191-2.047-3.284-.119-.2.42-.437-.58-.543v47.4c0-.032.453-.059.606-.1l3.37-.773ZM126.224,111.62q-2.316.824-4.632,1.655l-10.545,3.781c-1.953.7-3.9,1.41-5.856,2.108q-5.973,2.131-11.949,4.255c-2.308.822-4.617,1.838-6.924,2.664-.632.227-1.255.917-1.881.917h26.49l.57-.327a14.828,14.828,0,0,0,2-.35,16.35,16.35,0,0,0,7.311-3.392,16.629,16.629,0,0,0,4.061-4.778,17.024,17.024,0,0,0,2.041-6.1.682.682,0,0,0-.071-.589,1.5,1.5,0,0,0-.614.157Zm-2.275-35.571q-1.752-2.4-3.5-4.792-2.414-3.311-4.822-6.624c-.653-.9-1.315-1.785-1.952-2.691a.588.588,0,0,0-.71-.265l-.171.049q-4.437,1.079-8.876,2.153l-5.3,1.287L88.239,67.685q-5.128,1.247-10.258,2.492L67.319,72.759q-5.246,1.273-10.488,2.551L46.689,77.772q-2.68.651-5.359,1.3a1.93,1.93,0,0,0-.826.292l.239.455q2.246,3.879,4.495,7.755,2.549,4.389,5.1,8.774,2.811,4.819,5.63,9.636c1.079,1.845,2.151,3.692,3.239,5.532q1.813,3.066,3.653,6.115c.369.607.788,1.187,1.21,1.759a3.639,3.639,0,0,0,1.046.957,1.8,1.8,0,0,0,1.369.229,7.023,7.023,0,0,0,.737-.223l.89-.33q4.855-1.661,9.711-3.317,3.789-1.29,7.583-2.571,3.764-1.276,7.53-2.545l7.474-2.524q3.822-1.292,7.642-2.585,4.689-1.591,9.379-3.185,4.522-1.53,9.049-3.052a.929.929,0,0,0,.542-.291l.019-.439q0-9.382.006-18.766a1.38,1.38,0,0,0-.289-.873c-.948-1.269-1.877-2.551-2.812-3.828Zm-.519-58.938a2.392,2.392,0,0,0-2.692-.885c-.477.125-.967.2-1.453.293q-2.391.438-4.784.868-3.5.636-7,1.272-2.772.5-5.546.983l-7.418,1.3a6.9,6.9,0,0,0-.925.2c-.437.14-.563.414-.363.825a6.356,6.356,0,0,0,.586.959q2.3,3.171,4.616,6.333,3.186,4.363,6.374,8.724,2.7,3.69,5.4,7.379,2.121,2.9,4.244,5.8l.279.338,12.271-3.033.029-.636q0-12.767.006-25.534a1.463,1.463,0,0,0-.328-.976c-1.032-1.3-2.045-2.621-3.066-3.933l-.226-.274Zm3.3,41.241c-1.856.446-3.719.87-5.62,1.373.2.357,5.415,7.4,5.718,7.729l.19.105.021-.429V64.167c0-1.719,0-3.438,0-5.157a1.02,1.02,0,0,0-.085-.646l-.226-.012Z" fill="#fff" fill-rule="evenodd"/>
  </g>
</svg>
