<svg xmlns="http://www.w3.org/2000/svg" width="53.431" height="118.89" viewBox="0 0 53.431 118.89">
  <path id="mongodb-icon" d="M90.491,57.282a55.613,55.613,0,0,0-3.062-13.934,68.6,68.6,0,0,0-15.783-26.74c-1.854-1.946-3.916-3.729-5.209-6.151-.818-1.532-1.6-3.085-2.394-4.629l-.505-1.273a2.971,2.971,0,0,0-.142.5c-.065,2.517-1.491,4.224-3.267,5.817-2,1.793-3.856,3.739-5.775,5.618l-5.9,7.763q-2.388,4.387-4.772,8.775l-3.19,8.617-.1.134a79.893,79.893,0,0,0-3.048,17.688,53.815,53.815,0,0,0,.149,6.8,46.686,46.686,0,0,0,1.586,9.545c3.062,11.372,9.276,20.805,17.771,28.819,1.579,1.489,3.2,2.843,4.847,4.26.282-.965.507-1.93.763-2.895s.515-1.917.688-2.881c-.174.964-.369,1.92-.562,2.881l-.826,2.895.738,2.5.684,3.884.326,4.053c0,.823-.036,1.648.014,2.47.012.21.288.4.442.606l1.376.483,1.434.558-.246-3.6-.011-3.548.5-5.4.359-1.177,1.027-1.82c1.268-1.02,2.629-1.946,3.784-3.081a87.732,87.732,0,0,0,6.045-6.383,47.846,47.846,0,0,0,6.191-9.516,72.463,72.463,0,0,0,3.052-7c.77-2.1,1.247-4.315,1.854-6.479a4.1,4.1,0,0,0,.16-.468,61.183,61.183,0,0,0,1-17.682Zm-23.6,49.375-.805-1.763.805,1.763,1.183,1.01Z" transform="translate(-37.284 -4.555)" fill="#fff" fill-rule="evenodd"/>
</svg>
