<svg xmlns="http://www.w3.org/2000/svg" width="107.001" height="120.919" viewBox="0 0 107.001 120.919">
  <path id="nodejs-icon" d="M112.678,30.334,68.535,4.729a9.552,9.552,0,0,0-9.227,0L14.82,30.334A9.5,9.5,0,0,0,10,38.407V89.549a9.569,9.569,0,0,0,4.862,8.083l11.729,6.688c5.627,2.772,7.186,2.772,9.746,2.772,8.334,0,12.662-5.039,12.662-13.828V42.774c0-.713.446-1.774-.255-1.774H43.122C42.41,41,41,42.061,41,42.773v50.49c0,3.9-3.616,7.773-10.2,4.48L18.676,90.73A1.341,1.341,0,0,1,18,89.549V38.407a1.649,1.649,0,0,1,.891-1.213L63.269,11.633a1.508,1.508,0,0,1,1.415,0l43.963,25.555c.421.253.354.722.354,1.219V89.549c0,.488.092.963-.323,1.2L64.545,116.323a1.3,1.3,0,0,1-1.285,0l-11.317-6.749a1.1,1.1,0,0,0-1.08-.086,29.441,29.441,0,0,1-6.679,3.043c-.727.253-1.8.692.408,1.929l14.8,8.754a9.324,9.324,0,0,0,9.313,0l43.976-25.582A9.085,9.085,0,0,0,117,89.549V38.407a9.057,9.057,0,0,0-4.323-8.073ZM77.727,81.445c-11.727,0-14.309-3.235-15.17-9.066-.1-.628-.634-1.379-1.274-1.379h-5.73c-.709,0-1.28.86-1.28,1.566,0,7.466,4.06,16.512,23.454,16.512,14.038,0,22.088-5.455,22.088-15.109,0-9.572-6.467-12.084-20.082-13.886-13.762-1.819-15.16-2.738-15.16-5.962,0-2.658,1.184-6.2,11.374-6.2,9.1,0,12.46,1.954,13.841,8.091A1.264,1.264,0,0,0,91.029,57h5.754a1.313,1.313,0,0,0,.939-.4,1.3,1.3,0,0,0,.336-.979c-.893-10.569-7.913-15.494-22.112-15.494-12.632,0-20.166,5.334-20.166,14.275,0,9.7,7.5,12.378,19.622,13.577,14.5,1.422,15.633,3.542,15.633,6.395C91.035,79.334,87.057,81.445,77.727,81.445Z" transform="translate(-10 -3.541)" fill="#fff"/>
</svg>
