<svg xmlns="http://www.w3.org/2000/svg" width="128" height="110.141" viewBox="0 0 128 110.141">
  <g id="vuejs-icon" transform="translate(0 -8.934)">
    <path id="Caminho_26" data-name="Caminho 26" d="M0,8.934l49.854.159,14.167,24.47L78.453,9.092,128,8.935,64.166,119.075Zm126.98.637-24.36.021L64.144,75.644,25.691,9.592.942,9.572l63.211,107.89Zm-25.149-.008-22.745.168L64.033,34.378,49.216,9.731,26.422,9.563,64.153,74.039ZM26,9.393,49,9.4M26,9.393,49,9.4" fill="none"/>
    <path id="Caminho_27" data-name="Caminho 27" d="M26,9.393,49,9.4,64.035,34.36,79.018,9.4,102,9.4,64.15,75.053Z" fill="#fff"/>
    <path id="Caminho_28" data-name="Caminho 28" d="M.911,9.569,25.977,9.4,64.128,75.055,101.98,9.4l25.11.026L64.124,117.488Z" fill="#fff"/>
  </g>
</svg>
